<svg width="14" height="13" viewBox="0 0 14 13" fill="none" xmlns="http://www.w3.org/2000/svg">
    <path d="M6.99992 11.26C4.25992 8.84667 1.66659 6.22667 1.66659 3.88667C1.66659 2.47333 2.51325 1.33333 4.03325 1.33333C4.89992 1.33333 5.69325 1.92667 6.25992 2.76C6.45992 3.05333 6.65992 3.25333 6.99992 3.25333C7.33992 3.25333 7.53992 3.05333 7.73992 2.76C8.30659 1.92667 9.09992 1.33333 9.96659 1.33333C11.4866 1.33333 12.3333 2.47333 12.3333 3.88667C12.3333 6.22667 9.73992 8.84667 6.99992 11.26ZM6.99992 12.6667C7.23992 12.6667 7.46659 12.5667 7.65992 12.4067C10.7866 9.82 13.6666 6.77333 13.6666 3.88667C13.6666 1.74667 12.1599 0 9.96659 0C8.75325 0 7.67325 0.646667 7.02659 1.78H6.97325C6.32659 0.646667 5.24659 0 4.03325 0C1.83992 0 0.333252 1.74667 0.333252 3.88667C0.333252 6.77333 3.21325 9.82 6.33992 12.4067C6.53325 12.5667 6.75992 12.6667 6.99992 12.6667Z" fill="#2B2D33"/>
</svg>
